<?xml version="1.0" encoding="UTF-8"?>
<svg version="1.1" xmlns="http://www.w3.org/2000/svg" width="356" height="301">
<path d="M0 0 C117.48 0 234.96 0 356 0 C356 99.33 356 198.66 356 301 C238.52 301 121.04 301 0 301 C0 201.67 0 102.34 0 0 Z " fill="#FDFDFD" transform="translate(0,0)"/>
<path d="M0 0 C43.89 0 87.78 0 133 0 C133 0.33 133 0.66 133 1 C125.08 1 117.16 1 109 1 C109.07400346 7.88742585 109.15684097 14.77355414 109.26245117 21.66040039 C109.29568906 24.00277978 109.3237245 26.34523904 109.34643555 28.68774414 C109.38000168 32.05649833 109.43232019 35.42452131 109.48828125 38.79296875 C109.49786613 40.36198189 109.49786613 40.36198189 109.50764465 41.96269226 C109.58964128 48.99017172 109.58964128 48.99017172 113 55 C115.96217442 57.02871609 118.71234042 57.34571109 122.25 57.625 C123.14203125 57.69976562 124.0340625 57.77453125 124.953125 57.8515625 C125.62859375 57.90054688 126.3040625 57.94953125 127 58 C127.33 59.65 127.66 61.3 128 63 C108.2 63 88.4 63 68 63 C68 61.68 68 60.36 68 59 C68.80824219 58.84144531 69.61648437 58.68289062 70.44921875 58.51953125 C78.9395325 56.73737731 78.9395325 56.73737731 85 51 C85.93789698 48.18630906 86.14931982 46.356895 86.20532227 43.43676758 C86.22550415 42.50320435 86.24568604 41.56964111 86.26647949 40.60778809 C86.28295532 39.62991333 86.29943115 38.65203857 86.31640625 37.64453125 C86.33505737 36.74327515 86.3537085 35.84201904 86.3729248 34.91345215 C86.44122692 31.54656789 86.50137282 28.17952216 86.5625 24.8125 C86.706875 17.284375 86.85125 9.75625 87 2 C65.55 2 44.1 2 22 2 C22.12375 9.816875 22.2475 17.63375 22.375 25.6875 C22.40899902 28.14791748 22.44299805 30.60833496 22.47802734 33.14331055 C22.51324199 35.09946036 22.5491642 37.05559762 22.5859375 39.01171875 C22.60297729 40.52795837 22.60297729 40.52795837 22.62036133 42.0748291 C22.64042236 43.0487561 22.6604834 44.02268311 22.68115234 45.02612305 C22.69447601 45.86773483 22.70779968 46.70934662 22.7215271 47.57646179 C23.04607048 50.40094953 23.66222796 52.48763627 25 55 C27.80891079 56.03626836 30.22584025 56.73417021 33.125 57.3125 C33.87910156 57.48072266 34.63320312 57.64894531 35.41015625 57.82226562 C37.26927706 58.23409618 39.13419175 58.61961312 41 59 C41 60.32 41 61.64 41 63 C21.2 63 1.4 63 -19 63 C-19 61.35 -19 59.7 -19 58 C-18.19175781 57.91363281 -17.38351563 57.82726562 -16.55078125 57.73828125 C-9.59316282 57.06508918 -9.59316282 57.06508918 -3.8125 53.5625 C6.52373596 38.94920089 -0.37282197 17.89545441 0 0 Z " fill="#111111" transform="translate(170,171)"/>
<path d="M0 0 C19.8 0 39.6 0 60 0 C60 0.99 60 1.98 60 3 C58.66195312 3.27263672 58.66195312 3.27263672 57.296875 3.55078125 C56.12640625 3.80214844 54.9559375 4.05351563 53.75 4.3125 C52.58984375 4.55613281 51.4296875 4.79976563 50.234375 5.05078125 C47.10563552 5.96899827 45.32828608 6.754867 43 9 C42.04482467 11.865526 41.84945802 13.76521321 41.79467773 16.74682617 C41.77449585 17.72099487 41.75431396 18.69516357 41.73352051 19.69885254 C41.71704468 20.71991089 41.70056885 21.74096924 41.68359375 22.79296875 C41.66494263 23.73354126 41.6462915 24.67411377 41.6270752 25.64318848 C41.55875905 29.15786312 41.49862211 32.67269289 41.4375 36.1875 C41.293125 44.045625 41.14875 51.90375 41 60 C62.45 60 83.9 60 106 60 C105.896875 52.348125 105.79375 44.69625 105.6875 36.8125 C105.66260498 34.40428955 105.63770996 31.9960791 105.61206055 29.51489258 C105.57976649 27.59975234 105.54639219 25.68462989 105.51171875 23.76953125 C105.50547485 22.78029663 105.49923096 21.79106201 105.49279785 20.77185059 C105.38104888 13.88217751 105.38104888 13.88217751 102 8 C97.24006368 4.82670912 92.56655668 4.35873365 87 4 C87 2.68 87 1.36 87 0 C106.47 0 125.94 0 146 0 C146 0.99 146 1.98 146 3 C145.18015625 3.18175781 144.3603125 3.36351563 143.515625 3.55078125 C142.43796875 3.80214844 141.3603125 4.05351563 140.25 4.3125 C139.18265625 4.55613281 138.1153125 4.79976563 137.015625 5.05078125 C134.03247701 5.98977731 132.25859472 6.86277836 130 9 C129.03619923 11.8914023 128.84887976 13.82653923 128.79467773 16.83862305 C128.77473251 17.8194133 128.75478729 18.80020355 128.73423767 19.81071472 C128.71752518 20.86704605 128.70081268 21.92337738 128.68359375 23.01171875 C128.6524221 24.63676079 128.6524221 24.63676079 128.62062073 26.29463196 C128.55518203 29.75885616 128.49626647 33.2231568 128.4375 36.6875 C128.39430939 39.03451315 128.35069493 41.38151853 128.30664062 43.72851562 C128.19950639 49.48559854 128.09822273 55.24275842 128 61 C134.93 61 141.86 61 149 61 C149 61.33 149 61.66 149 62 C106.1 62 63.2 62 19 62 C18.67 45.83 18.34 29.66 18 13 C14.92443592 7.66919192 14.92443592 7.66919192 10 5 C6.68850581 4.18736339 3.3635315 3.55514598 0 3 C0 2.01 0 1.02 0 0 Z " fill="#0D0D0D" transform="translate(151,92)"/>
<path d="M0 0 C11.10909507 -0.18546525 22.21782117 -0.32755972 33.3281498 -0.41449738 C38.48738967 -0.45622671 43.64556949 -0.51281265 48.80419922 -0.60351562 C53.78393315 -0.69052387 58.7626485 -0.73829111 63.74308395 -0.75901794 C65.64180921 -0.77378544 67.54047946 -0.80262491 69.43877029 -0.84584045 C84.32945876 -1.17131191 84.32945876 -1.17131191 88.47909546 1.73823547 C90.05631645 3.79375266 91.06503863 5.59464066 92 8 C92.48210937 8.90105469 92.96421875 9.80210937 93.4609375 10.73046875 C97.21159064 20.81235261 97.42302163 30.44324433 93.25390625 40.4375 C88.13855517 50.89130159 81.15788498 57.55576495 70.43359375 62.17578125 C63.95090649 64.37136233 58.00436081 65.41524145 51.1875 65.4375 C50.37361816 65.44064209 49.55973633 65.44378418 48.72119141 65.44702148 C40.89044548 65.29755683 33.81890206 63.46346071 26.3671875 61.19140625 C21.93138718 59.87033987 17.60599543 59.39675406 13 59 C12.34 61.31 11.68 63.62 11 66 C9.35 66 7.7 66 6 66 C5.13639739 60.75445632 4.28225951 55.50748717 3.43652344 50.2590332 C3.14804938 48.47704439 2.85707832 46.6954578 2.56347656 44.91430664 C2.13976433 42.34104746 1.72531596 39.7664332 1.3125 37.19140625 C1.18125732 36.40665421 1.05001465 35.62190216 0.91479492 34.81336975 C0.07238798 29.48289295 -0.11278488 24.39722661 0 19 C1.65 19 3.3 19 5 19 C5.20753906 19.59425781 5.41507813 20.18851563 5.62890625 20.80078125 C8.23923241 27.82354158 11.71067762 33.86834752 16 40 C16.46148437 40.66128906 16.92296875 41.32257813 17.3984375 42.00390625 C22.44394086 48.52222996 30.50267453 54.26660455 38.70703125 55.7890625 C48.78756035 56.71640249 57.04519464 56.7894216 65.75 51.25 C70.76180138 46.23819862 73.13746785 40.50327167 73.3125 33.4375 C73.21828094 25.63616149 71.3643324 19.18526712 66 13.375 C64.67005769 12.24599326 63.33613932 11.12166595 62 10 C61.30358398 9.32533691 60.60716797 8.65067383 59.88964844 7.95556641 C49.49430757 -0.68849453 37.08822819 0.88659445 24.25 1 C21.89581811 0.99189778 19.54164568 0.98021109 17.1875 0.96484375 C11.45778869 0.93517801 5.72954083 0.94997211 0 1 C0 0.67 0 0.34 0 0 Z " fill="#090909" transform="translate(55,171)"/>
<path d="M0 0 C2.61328125 -0.1875 2.61328125 -0.1875 5 0 C5.57693043 4.94303557 6.14628467 9.88686717 6.70898438 14.83154297 C6.90097291 16.50950992 7.09494059 18.18725176 7.29101562 19.86474609 C8.31171921 28.60842633 9.2874162 37.17991545 9 46 C7.35 46 5.7 46 4 46 C3.56429687 44.9378125 3.12859375 43.875625 2.6796875 42.78125 C-2.48997128 30.4115175 -8.765433 17.8899963 -21.75 12.0625 C-30.2217745 9.29288141 -39.22482287 8.30002924 -47.5 12.125 C-52.21852426 14.79857795 -54.72615308 17.8153827 -56.75 22.875 C-57.62464428 30.30947638 -56.96373872 35.67454349 -52.69921875 41.8984375 C-45.16044958 51.36398886 -33.65217044 57.34592437 -23.38671875 63.46875 C-22.59910156 63.9740625 -21.81148438 64.479375 -21 65 C-21 65.33 -21 65.66 -21 66 C-43.77 66 -66.54 66 -90 66 C-90 65.67 -90 65.34 -90 65 C-77.625 64.01 -77.625 64.01 -65 63 C-67.31 60.36 -69.62 57.72 -72 55 C-76.65187087 46.00638299 -77.47764752 35.10868264 -75.421875 25.21875 C-72.25974442 16.13481125 -65.26044925 8.85964933 -57.1171875 3.9375 C-51.19485484 1.31506487 -45.68581092 0.64246376 -39.3125 0.6875 C-38.52520508 0.69023926 -37.73791016 0.69297852 -36.92675781 0.69580078 C-29.0931715 0.8349437 -22.09294783 2.50449983 -14.75 5.1875 C-10.79854225 6.35497615 -8.1325293 6.53322959 -4 6 C-1.78831775 3.05763218 -1.78831775 3.05763218 0 0 Z " fill="#070707" transform="translate(137,88)"/>
<path d="M0 0 C3.31248187 -0.02888146 6.62493167 -0.04675799 9.9375 -0.0625 C10.88302734 -0.07087891 11.82855469 -0.07925781 12.80273438 -0.08789062 C14.15141602 -0.09272461 14.15141602 -0.09272461 15.52734375 -0.09765625 C16.77632446 -0.10551147 16.77632446 -0.10551147 18.05053711 -0.11352539 C20 0 20 0 21 1 C21.10672392 2.44656572 21.14619198 3.8981813 21.15771484 5.34863281 C21.16797699 6.27339417 21.17823914 7.19815552 21.18881226 8.15093994 C21.19611359 9.15816101 21.20341492 10.16538208 21.2109375 11.203125 C21.23901286 13.31901806 21.26767737 15.43490338 21.296875 17.55078125 C21.33811508 20.89957408 21.374986 24.24822328 21.40136719 27.59716797 C21.42898447 30.82029474 21.47486682 34.04275498 21.5234375 37.265625 C21.52669037 38.26474915 21.52994324 39.26387329 21.53329468 40.29327393 C21.62377864 45.41307109 21.81572043 48.76768953 25 53 C25 53.66 25 54.32 25 55 C30.28 56.32 35.56 57.64 41 59 C41 60.32 41 61.64 41 63 C21.2 63 1.4 63 -19 63 C-19 61.35 -19 59.7 -19 58 C-18.19175781 57.91363281 -17.38351563 57.82726562 -16.55078125 57.73828125 C-9.59316282 57.06508918 -9.59316282 57.06508918 -3.8125 53.5625 C-1.3316434 50.05508205 -0.87160936 47.44045239 -0.79467773 43.25317383 C-0.77473251 42.29240433 -0.75478729 41.33163483 -0.73423767 40.3417511 C-0.71752518 39.30729355 -0.70081268 38.272836 -0.68359375 37.20703125 C-0.66281265 36.14586594 -0.64203156 35.08470062 -0.62062073 33.99137878 C-0.55518762 30.59848563 -0.49626907 27.2055145 -0.4375 23.8125 C-0.39430886 21.51366378 -0.35069438 19.21483547 -0.30664062 16.91601562 C-0.1995126 11.2774264 -0.09773449 5.63875944 0 0 Z " fill="#080808" transform="translate(170,171)"/>
<path d="M0 0 C19.47 0 38.94 0 59 0 C59 0.99 59 1.98 59 3 C58.18015625 3.18175781 57.3603125 3.36351563 56.515625 3.55078125 C55.43796875 3.80214844 54.3603125 4.05351563 53.25 4.3125 C52.18265625 4.55613281 51.1153125 4.79976563 50.015625 5.05078125 C46.31097856 6.2168811 43.94782785 7.43344122 41.91152954 10.79901123 C40.87458171 13.30283633 40.72385753 15.15568953 40.68115234 17.86035156 C40.66128265 18.82104553 40.64141296 19.7817395 40.62094116 20.77154541 C40.60361435 22.31548981 40.60361435 22.31548981 40.5859375 23.890625 C40.56657135 24.95037537 40.5472052 26.01012573 40.5272522 27.10198975 C40.46750446 30.48457813 40.4210898 33.86720063 40.375 37.25 C40.33681584 39.54428562 40.29776385 41.83855697 40.2578125 44.1328125 C40.1601745 49.75513382 40.08056653 55.37730435 40 61 C33.07 61 26.14 61 19 61 C18.94392578 55.88951172 18.94392578 55.88951172 18.88671875 50.67578125 C18.84049547 47.37273776 18.78926461 44.06980722 18.73754883 40.7668457 C18.70431366 38.47297033 18.67627736 36.17901346 18.65356445 33.88500977 C18.61999326 30.58574727 18.56767465 27.2872307 18.51171875 23.98828125 C18.50532883 22.96414627 18.4989389 21.94001129 18.49235535 20.88484192 C18.39854888 13.93186048 18.39854888 13.93186048 15 8 C10.24006368 4.82670912 5.56655668 4.35873365 0 4 C0 2.68 0 1.36 0 0 Z " fill="#030303" transform="translate(238,92)"/>
<path d="M0 0 C2.98970289 0.08705146 5.95584955 0.11550145 8.9453125 0.09765625 C10.27283035 0.09553383 10.27283035 0.09553383 11.62716675 0.09336853 C14.45981191 0.0877614 17.29237864 0.07520771 20.125 0.0625 C22.04296761 0.05748592 23.96093646 0.05292285 25.87890625 0.04882812 C30.58596782 0.03778966 35.2929706 0.02052025 40 0 C40.495 0.99 40.495 0.99 41 2 C18.23 2 -4.54 2 -28 2 C-28 1.67 -28 1.34 -28 1 C-23.70906486 0.636565 -19.41718655 0.2858188 -15.125 -0.0625 C-13.90167969 -0.16626953 -12.67835937 -0.27003906 -11.41796875 -0.37695312 C-10.25136719 -0.47041016 -9.08476563 -0.56386719 -7.8828125 -0.66015625 C-6.80402832 -0.74918213 -5.72524414 -0.83820801 -4.61376953 -0.92993164 C-2 -1 -2 -1 0 0 Z " fill="#3A3A3A" transform="translate(75,152)"/>
<path d="M0 0 C17.82 0 35.64 0 54 0 C53.67 0.99 53.34 1.98 53 3 C52.01 2.67 51.02 2.34 50 2 C48.35912211 1.88507216 46.7142222 1.82367646 45.06958008 1.79467773 C43.56836357 1.7647599 43.56836357 1.7647599 42.03681946 1.73423767 C40.95861435 1.71752518 39.88040924 1.70081268 38.76953125 1.68359375 C37.11119514 1.6524221 37.11119514 1.6524221 35.4193573 1.62062073 C31.8838021 1.55517668 28.34817194 1.49626397 24.8125 1.4375 C22.41730992 1.3943099 20.02212745 1.35069546 17.62695312 1.30664062 C11.75138158 1.19950052 5.87573528 1.09772443 0 1 C0 0.67 0 0.34 0 0 Z " fill="#101010" transform="translate(55,171)"/>
</svg>
